<?xml version="1.0" encoding="UTF-8" standalone="no"?>
<!-- Created with Inkscape (http://www.inkscape.org/) -->
<svg
   xmlns:svg="http://www.w3.org/2000/svg"
   xmlns="http://www.w3.org/2000/svg"
   version="1.0"
   width="379.20001"
   height="201.89999"
   id="svg2514"
   xml:space="preserve"><defs
     id="defs2517" /><g
     transform="matrix(1.25,0,0,-1.25,0,201.9)"
     id="g2523"><path
       d="M 1.1601562,-8.3671875 C 1.1601551,-11.218739 1.9257793,-13.451158 3.4570312,-15.064453 C 4.9882763,-16.677718 6.9648368,-17.484358 9.3867188,-17.484375 C 10.972645,-17.484358 12.402331,-17.105452 13.675781,-16.347656 C 14.949204,-15.589828 15.919906,-14.533189 16.587891,-13.177734 C 17.255842,-11.822254 17.589826,-10.285146 17.589844,-8.5664062 C 17.589826,-6.8242119 17.238264,-5.2656197 16.535156,-3.890625 C 15.832015,-2.5156225 14.835923,-1.4746079 13.546875,-0.76757812 C 12.2578,-0.060546814 10.867177,0.29296846 9.375,0.29296875 C 7.7578047,0.29296846 6.3124937,-0.097656152 5.0390625,-0.87890625 C 3.7656212,-1.6601546 2.8007784,-2.7265598 2.1445312,-4.078125 C 1.4882798,-5.4296821 1.1601551,-6.8593681 1.1601562,-8.3671875 L 1.1601562,-8.3671875 z M 3.5039062,-8.3320312 C 3.5039027,-6.2617125 4.0605428,-4.6308547 5.1738281,-3.4394531 C 6.2871031,-2.2480446 7.6835861,-1.6523421 9.3632812,-1.6523438 C 11.074208,-1.6523421 12.482409,-2.253904 13.587891,-3.4570312 C 14.693345,-4.6601516 15.246079,-6.3671811 15.246094,-8.578125 C 15.246079,-9.9765525 15.009751,-11.197254 14.537109,-12.240234 C 14.064439,-13.28319 13.373034,-14.091783 12.462891,-14.666016 C 11.552723,-15.240219 10.531239,-15.527328 9.3984375,-15.527344 C 7.7890547,-15.527328 6.4042905,-14.974594 5.2441406,-13.869141 C 4.0839803,-12.763659 3.5039027,-10.917958 3.5039062,-8.3320312 L 3.5039062,-8.3320312 z"
       transform="matrix(1,0,0,-1,22.08,7.2)"
       id="text2525" /><path
       d="M 1.921875,0 L 1.921875,-17.179688 L 4.1953125,-17.179688 L 4.1953125,-10.125 L 13.125,-10.125 L 13.125,-17.179688 L 15.398438,-17.179688 L 15.398438,0 L 13.125,0 L 13.125,-8.0976562 L 4.1953125,-8.0976562 L 4.1953125,0 L 1.921875,0 z"
       transform="matrix(1,0,0,-1,4.8,7.2)"
       id="text2529" /><path
       d="M 100.08,96 L 134.4,76.08"
       id="path2533"
       style="fill:none;stroke:#000000;stroke-width:1.67999995;stroke-linecap:round;stroke-linejoin:miter;stroke-miterlimit:10;stroke-dasharray:none;stroke-opacity:1" /><path
       d="M 100.08,16.8 L 134.4,36.48"
       id="path2535"
       style="fill:none;stroke:#000000;stroke-width:1.67999995;stroke-linecap:round;stroke-linejoin:miter;stroke-miterlimit:10;stroke-dasharray:none;stroke-opacity:1" /><path
       d="M 65.76,76.08 L 100.08,96"
       id="path2537"
       style="fill:none;stroke:#000000;stroke-width:1.67999995;stroke-linecap:round;stroke-linejoin:miter;stroke-miterlimit:10;stroke-dasharray:none;stroke-opacity:1" /><path
       d="M 65.76,36.48 L 100.08,16.8"
       id="path2539"
       style="fill:none;stroke:#000000;stroke-width:1.67999995;stroke-linecap:round;stroke-linejoin:miter;stroke-miterlimit:10;stroke-dasharray:none;stroke-opacity:1" /><path
       d="M 65.76,36.48 L 65.76,76.08"
       id="path2541"
       style="fill:none;stroke:#000000;stroke-width:1.67999995;stroke-linecap:round;stroke-linejoin:miter;stroke-miterlimit:10;stroke-dasharray:none;stroke-opacity:1" /><path
       d="M 168.72,95.76 L 134.4,76.08"
       id="path2543"
       style="fill:none;stroke:#000000;stroke-width:1.67999995;stroke-linecap:round;stroke-linejoin:miter;stroke-miterlimit:10;stroke-dasharray:none;stroke-opacity:1" /><path
       d="M 134.4,36.48 L 134.4,76.08"
       id="path2545"
       style="fill:none;stroke:#000000;stroke-width:1.67999995;stroke-linecap:round;stroke-linejoin:miter;stroke-miterlimit:10;stroke-dasharray:none;stroke-opacity:1" /><path
       d="M 168.72,16.8 L 134.4,36.48"
       id="path2547"
       style="fill:none;stroke:#000000;stroke-width:1.67999995;stroke-linecap:round;stroke-linejoin:miter;stroke-miterlimit:10;stroke-dasharray:none;stroke-opacity:1" /><path
       d="M 203.04,36.48 L 203.04,76.08"
       id="path2549"
       style="fill:none;stroke:#000000;stroke-width:1.67999995;stroke-linecap:round;stroke-linejoin:miter;stroke-miterlimit:10;stroke-dasharray:none;stroke-opacity:1" /><path
       d="M 203.04,36.48 L 168.72,16.8"
       id="path2551"
       style="fill:none;stroke:#000000;stroke-width:1.67999995;stroke-linecap:round;stroke-linejoin:miter;stroke-miterlimit:10;stroke-dasharray:none;stroke-opacity:1" /><path
       d="M 203.04,155.28 L 237.12,135.36"
       id="path2553"
       style="fill:none;stroke:#000000;stroke-width:1.67999995;stroke-linecap:round;stroke-linejoin:miter;stroke-miterlimit:10;stroke-dasharray:none;stroke-opacity:1" /><path
       d="M 203.04,76.08 L 237.12,95.76"
       id="path2555"
       style="fill:none;stroke:#000000;stroke-width:1.67999995;stroke-linecap:round;stroke-linejoin:miter;stroke-miterlimit:10;stroke-dasharray:none;stroke-opacity:1" /><path
       d="M 168.72,135.36 L 203.04,155.28"
       id="path2557"
       style="fill:none;stroke:#000000;stroke-width:1.67999995;stroke-linecap:round;stroke-linejoin:miter;stroke-miterlimit:10;stroke-dasharray:none;stroke-opacity:1" /><path
       d="M 168.72,95.76 L 203.04,76.08"
       id="path2559"
       style="fill:none;stroke:#000000;stroke-width:1.67999995;stroke-linecap:round;stroke-linejoin:miter;stroke-miterlimit:10;stroke-dasharray:none;stroke-opacity:1" /><path
       d="M 168.72,95.76 L 168.72,135.36"
       id="path2561"
       style="fill:none;stroke:#000000;stroke-width:1.67999995;stroke-linecap:round;stroke-linejoin:miter;stroke-miterlimit:10;stroke-dasharray:none;stroke-opacity:1" /><path
       d="M 274.8,147.6 L 237.12,135.36"
       id="path2563"
       style="fill:none;stroke:#000000;stroke-width:1.67999995;stroke-linecap:round;stroke-linejoin:miter;stroke-miterlimit:10;stroke-dasharray:none;stroke-opacity:1" /><path
       d="M 237.12,95.76 L 237.12,135.36"
       id="path2565"
       style="fill:none;stroke:#000000;stroke-width:1.67999995;stroke-linecap:round;stroke-linejoin:miter;stroke-miterlimit:10;stroke-dasharray:none;stroke-opacity:1" /><path
       d="M 298.08,115.68 L 274.8,147.6"
       id="path2567"
       style="fill:none;stroke:#000000;stroke-width:1.67999995;stroke-linecap:round;stroke-linejoin:miter;stroke-miterlimit:10;stroke-dasharray:none;stroke-opacity:1" /><path
       d="M 274.8,83.52 L 237.12,95.76"
       id="path2569"
       style="fill:none;stroke:#000000;stroke-width:1.67999995;stroke-linecap:round;stroke-linejoin:miter;stroke-miterlimit:10;stroke-dasharray:none;stroke-opacity:1" /><path
       d="M 274.8,83.52 L 298.08,115.68"
       id="path2571"
       style="fill:none;stroke:#000000;stroke-width:1.67999995;stroke-linecap:round;stroke-linejoin:miter;stroke-miterlimit:10;stroke-dasharray:none;stroke-opacity:1" /><path
       d="M 65.76,36.48 L 43.44,23.52"
       id="path2573"
       style="fill:none;stroke:#000000;stroke-width:1.67999995;stroke-linecap:round;stroke-linejoin:miter;stroke-miterlimit:10;stroke-dasharray:none;stroke-opacity:1" /></g></svg>